# xmcd
#
# Track frame offsets: 
#        150
#        16596
#        31637
#        51712
#        70257
#        89789
#        108064
#        126060
#        143660
#        161784
#        179683
#        199377
#        218175
#        237646
#        255126
#        274311
#        294150
#        311850
#
# Disc length: 4384 seconds
#
# Revision: 0
# Processed by: cddbd v1.5.2PL0 Copyright (c) Steve Scherf et al.
# Submitted via: ExactAudioCopy v0.95a5
#
DISCID=0e111e12
DTITLE=Various Artist - Motown classics volume 5
DYEAR=2006
DGENRE=Soul
TTITLE0=Upside Down - Diana Ross
TTITLE1=Super Freak - Rick James
TTITLE2=Endless Love - Diana Ross and Lionel Richie
TTITLE3=Let It Whip - The Dazz Band
TTITLE4=All Night Long - Lionel Richie
TTITLE5=Don't Look Any Further - Dennis Edwards feat. Siedah Garrett
TTITLE6=Somebody's Watching Me - Rockwell
TTITLE7=Rythm of the night - Debarge
TTITLE8=Say You, Say Me - Lionel Richie
TTITLE9=In My House - Mary Janes Girls
TTITLE10=Nightshift - The Commodores
TTITLE11=Who's Johnny - El Debarge
TTITLE12=Him Or Me - Today
TTITLE13=Motownphilly - Boy II Men
TTITLE14=Rub You The Right Way - Johnny Gill
TTITLE15=I Love Your Smile - Shanice
TTITLE16=I'll Make Love To You - Boy II Men
TTITLE17=On And On - Erykah Badu
EXTD=
EXTT0=
EXTT1=
EXTT2=
EXTT3=
EXTT4=
EXTT5=
EXTT6=
EXTT7=
EXTT8=
EXTT9=
EXTT10=
EXTT11=
EXTT12=
EXTT13=
EXTT14=
EXTT15=
EXTT16=
EXTT17=
PLAYORDER=
